/* XPM */
static char *AnyConv_com__minimap_player_resized[] = {
/* columns rows colors chars-per-pixel */
"40 40 250 2 ",
"   c None",
".  c #000000",
"X  c #000100",
"o  c #010001",
"O  c #010101",
"+  c #000200",
"@  c #010201",
"#  c #020202",
"$  c #030303",
"%  c #000400",
"&  c #010501",
"*  c #040404",
"=  c #050505",
"-  c #060606",
";  c #070707",
":  c #080808",
">  c #090909",
",  c #0A0B0A",
"<  c #0C0C0C",
"1  c #0C0E0C",
"2  c #0D0E0D",
"3  c #0E0E0E",
"4  c #101010",
"5  c #121212",
"6  c #121312",
"7  c #111411",
"8  c #131613",
"9  c #151515",
"0  c #151615",
"q  c #161616",
"w  c #1C1C1C",
"e  c #1D1E1D",
"r  c #1F1F1F",
"t  c #202220",
"y  c #212321",
"u  c #222322",
"i  c #202420",
"p  c #252525",
"a  c #272627",
"s  c #2B2A2B",
"d  c #2A2C2A",
"f  c #2D2C2D",
"g  c #2D2F2D",
"h  c #2F2F2F",
"j  c #303130",
"k  c #333533",
"l  c #343534",
"z  c #343634",
"x  c #373637",
"c  c #373A37",
"v  c #373B37",
"b  c #383938",
"n  c #393C39",
"m  c #3E3C3E",
"M  c #404140",
"N  c #424242",
"B  c #444544",
"V  c #464646",
"C  c #474747",
"Z  c #4A4B4A",
"A  c #504E50",
"S  c #505150",
"D  c #525052",
"F  c #525452",
"G  c #595759",
"H  c #595C59",
"J  c #5C5E5C",
"K  c #5E615E",
"L  c #626262",
"P  c #646364",
"I  c #666566",
"U  c #666666",
"Y  c #686A68",
"T  c #6C6F6C",
"R  c #6D6E6D",
"E  c #6E6E6E",
"W  c #7D7B7D",
"Q  c #7C7E7C",
"!  c #7F837F",
"~  c #818081",
"^  c #828482",
"/  c #858785",
"(  c #858885",
")  c #898889",
"_  c #8B8A8B",
"`  c #8C8D8C",
"'  c #8D8D8D",
"]  c #909090",
"[  c #939793",
"{  c #959795",
"}  c #979997",
"|  c #999E99",
" . c #9C999C",
".. c #9D9C9D",
"X. c #A0A0A0",
"o. c #A0A1A0",
"O. c #A3A3A3",
"+. c #A1A6A1",
"@. c #A7A6A7",
"#. c #A5AAA5",
"$. c #A6A8A6",
"%. c #A7A8A7",
"&. c #A6ABA6",
"*. c #A8A6A8",
"=. c #A8A8A8",
"-. c #A9A9A9",
";. c #A8AAA8",
":. c #A9AAA9",
">. c #A9ABA9",
",. c #AAA9AA",
"<. c #AAAAAA",
"1. c #AAABAA",
"2. c #ABAAAB",
"3. c #ABACAB",
"4. c #ACACAC",
"5. c #ACAFAC",
"6. c #AEACAE",
"7. c #AEADAE",
"8. c #AFADAF",
"9. c #AEAFAE",
"0. c #AFAEAF",
"q. c #B0AEB0",
"w. c #B0AFB0",
"e. c #B1AEB1",
"r. c #B1B2B1",
"t. c #B0B5B0",
"y. c #B5B3B5",
"u. c #B5B5B5",
"i. c #B6B4B6",
"p. c #B8B6B8",
"a. c #B8B7B8",
"s. c #B9B7B9",
"d. c #B9B8B9",
"f. c #B9B9B9",
"g. c #B9BEB9",
"h. c #B9BFB9",
"j. c #BABFBA",
"k. c #BDBBBD",
"l. c #BCBDBC",
"z. c #BDBDBD",
"x. c #BEBEBE",
"c. c #BBC3BB",
"v. c #BCC0BC",
"b. c #BDC1BD",
"n. c #BFC1BF",
"m. c #BEC3BE",
"M. c #C1C0C1",
"N. c #C2C1C2",
"B. c #C2C5C2",
"V. c #C5C1C5",
"C. c #C4C3C4",
"Z. c #C7C6C7",
"A. c #C7C8C7",
"S. c #C7CDC7",
"D. c #C6CFC6",
"F. c #CBC7CB",
"G. c #C8CBC8",
"H. c #CACBCA",
"J. c #C9CCC9",
"K. c #CACDCA",
"L. c #CBCCCB",
"P. c #CBCDCB",
"I. c #CBCECB",
"U. c #CCC9CC",
"Y. c #CCCBCC",
"T. c #CDCCCD",
"R. c #CDCDCD",
"E. c #CCCECC",
"W. c #CECDCE",
"Q. c #CECFCE",
"!. c #CFCFCF",
"~. c #CCD3CC",
"^. c #CED0CE",
"/. c #D0D1D0",
"(. c #D1D0D1",
"). c #D4D4D4",
"_. c #D5D6D5",
"`. c #D6D5D6",
"'. c #D7D7D7",
"]. c #D5DCD5",
"[. c #D9D9D9",
"{. c #DAD9DA",
"}. c #DADBDA",
"|. c #DBDADB",
" X c #DDDBDD",
".X c #DCDCDC",
"XX c #DCDEDC",
"oX c #DDDEDD",
"OX c #DEDDDE",
"+X c #DFDDDF",
"@X c #DEDEDE",
"#X c #DFDEDF",
"$X c #DEE0DE",
"%X c #E0DCE0",
"&X c #E1DEE1",
"*X c #E0E1E0",
"=X c #E0E2E0",
"-X c #E6EAE6",
";X c #E4EDE4",
":X c #E7EDE7",
">X c #E7EEE7",
",X c #E7EFE7",
"<X c #E9E8E9",
"1X c #E9E9E9",
"2X c #E9EAE9",
"3X c #EAE8EA",
"4X c #EAE9EA",
"5X c #EBE9EB",
"6X c #EAEAEA",
"7X c #EBEAEB",
"8X c #EBEBEB",
"9X c #EEE9EE",
"0X c #EDEDED",
"qX c #EEEDEE",
"wX c #EEEEEE",
"eX c #EEEFEE",
"rX c #E9F0E9",
"tX c #EEF0EE",
"yX c #EFF2EF",
"uX c #EFF3EF",
"iX c #F0EEF0",
"pX c #F1EEF1",
"aX c #F0F0F0",
"sX c #F1F2F1",
"dX c #F2F2F2",
"fX c #F3F3F3",
"gX c #F1F4F1",
"hX c #F2F5F2",
"jX c #F4F4F4",
"kX c #F5F5F5",
"lX c #F6F6F6",
"zX c #F7F7F7",
"xX c #F7F8F7",
"cX c #F7FAF7",
"vX c #F8F8F8",
"bX c #F9F9F9",
"nX c #FAFAFA",
"mX c #FAFBFA",
"MX c #FBFBFB",
"NX c #FAFCFA",
"BX c #FCFBFC",
"VX c #FDFDFD",
"CX c #FCFEFC",
"ZX c #FEFDFE",
"AX c #FFFCFF",
"SX c #FFFDFF",
"DX c #FEFEFE",
"FX c #FEFFFE",
"GX c #FFFEFF",
"HX c #FFFFFF",
/* pixels */
"                                                                                ",
"                                      . .                                       ",
"                                    . . . .                                     ",
"                                  . . . . . .                                   ",
"                                . . . . . . . .                                 ",
"                              . . . . . . . . . .                               ",
"                            . . . . * J P $ . . . .                             ",
"                            . + + @ K ].U.G o . . .                             ",
"                          . . % X v ~.>X&XV.m o . . .                           ",
"                        . . X X i g.rX:X&X%X6.w . . . .                         ",
"                        . . . e -.xXeXnXfX.XQ./ 8 . . .                         ",
"                      . . . : ' VXzXjXHXbX*XQ.L.Y = . . .                       ",
"                    . . X . S aXHXMXVXHXnX7X).E.5.C . . . .                     ",
"                  . . . . c _.HXHXHXHXHXBXpX#XJ.m...a . . . .                   ",
"                  . . . 1 r.HXHXHXHXHXHXMXiX3X^.v.p.W > . . .                   ",
"                . . . O E vXHXHXHXHXHXHXmXyXtX.Xn.z.1.Z o . . .                 ",
"                . . . j XXHXHXHXHXHXHXHXNXuXtX1XA.l.9.] r . . .                 ",
"              . . . 4 @.ZXHXHXHXHXHXHXHXNXuXtX6X/.z.0.$.T , . . .               ",
"              . . . A 9XGXHXHXHXHXHXHXHXNXuXtX6X}.M.q.>.| k . . .               ",
"            . . . 9 V.AXSXHXHXHXHXHXHXHXNXuXtX2XoXW.q.;.&.! 2 . . .             ",
"            . + X F kXHXHXHXHXHXHXHXHXHXNXuXtX6X@X[.d.,.1.O.x . . .             ",
"            . + & } HXHXHXHXHXHXHXHXHXHXNXuXtX6X@X@XC.2.<.4.I o . .             ",
"          . . . y !.HXHXHXHXHXHXHXHXHXHXNXuXtX6X@X@XY.w.<.4._ q . . .           ",
"          . . . N bXHXHXHXHXHXHXHXHXHXHXNXuXtX6X@X@XR.u.-.<.*.f . . .           ",
"          . . . V DXHXHXHXHXHXHXHXHXHXHXNXuXtX6X@X@X!.f.-.<.,.h . . .           ",
"          . . . B cXFXHXHXHXHXHXHXHXHXHXNXuXtX6X@X@X(.a.-.:.#.g . . .           ",
"          . . . M gXFXHXHXHXHXHXHXHXHXHXNXuXtX6X@X@XT.7.<.:.+.d . . .           ",
"          . . . t G.HXHXHXHXHXHXHXHXHXHXNXuXtX1XOX@XZ.2.<.3.( 0 . . .           ",
"            . + & [ HXHXHXHXHXHXHXHXHXHXNXuXtX1X X).i.,.<.3.L o . .             ",
"            . + + n 8XHXHXHXHXHXHXHXHXHXmXyXtX<X`.N.q.,.<.X.l . . .             ",
"            . . . -  .GXSXHXHXHXHXHXHXHXbXqX4X'.B.k.e.=.%.U ; . . .             ",
"              . . . s F.HXHXHXHXHXbXdXdX5X+X).J.b.k.e.-.^ w . . .               ",
"              . . . . x H.HXCXFXHXlX0X-X@X{.P.S.j.s.y.) u . . . .               ",
"                . . . . z t.hXHXHXzXwX;X$X|.K.D.h.8.~ p . . . .                 ",
"                  . . . . 7 H x.dXlXsX,X=X#XI.c.{ D < . . . .                   ",
"                    . . . . . 4 C Q [ #.o.` R b 3 # . . . .                     ",
"                      . . . . . . . $ 6 5 $ . . . . . . .                       ",
"                        . . . . . . . . . . . . . . . .                         ",
"                            . . . . . . . . . . . .                             ",
"                                                                                "
};
