/* XPM */
static char *toxpm[] = {
/* columns rows colors chars-per-pixel */
"512 32 8 1 ",
"  c None",
". c black",
"X c #4D6DF3",
"o c #709AD1",
"O c #99D9EA",
"+ c #75D7F0",
"@ c #B4B4B4",
"# c white",
/* pixels */
"                                ...                             ......                          ........                        ..........                      ............                    ..............                  ................                ..................              ....................            ......................          ........................        ..........................      ............................    ..............................  ................................",
"                                XX.                             oooXX.                          oooooXX.                        oooooooXX.                      oooooooooXX.                    oooooooooooXX.                  oooooooooooooXX.                oooooooooooooooXX.              oooooooooooooooooXX.            oooooooooooooooooooXX.          oooooooooooooooooooooXX.        oooooooooooooooooooooooXX.      XXoooooooooooooooooooooooXX.    XXXXoooooooooooooooooooooooXX.  .XXXXXoooooooooooooooooooooooXX.",
"                                oX.                             ooooX.                          ooooooX.                        ooooooooX.                      ooooooooooX.                    ooooooooooooX.                  ooooooooooooooX.                ooooooooooooooooX.              ooooooooooooooooooX.            ooooooooooooooooooooX.          ooooooooooooooooooooooX.        ooooooooooooooooooooooooX.      XoooooooooooooooooooooooooX.    XXXoooooooooooooooooooooooooX.  .XXXXoooooooooooooooooooooooooX.",
"                                oo.                             ooooo.                          ooooooo.                        ooooooooo.                      ooooooooooo.                    ooooooooooooo.                  ..ooooooooooooo.                ....ooooooooooooo.              o.....ooooooooooooo.            ooo.....ooooooooooooo.          ooooo.....ooooooooooooo.        ooooooo.....ooooooooooooo.      ooooooooo.....ooooooooooooo.    XXooooooooo.....ooooooooooooo.  .XXXooooooooo.....ooooooooooooo.",
"                                oo.                             ooooo.                          ooooooo.                        ooooooooo.                      ooooooooooo.                    ..ooooooooooo.                  OO..ooooooooooo.                O.OO..ooooooooooo.              .OO.OO..ooooooooooo.            o..OO.OO..ooooooooooo.          ooo..OO.OO..ooooooooooo.        ooooo..OO.OO..ooooooooooo.      ooooooo..OO.OO..ooooooooooo.    Xoooooooo..OO.OO..ooooooooooo.  .XXoooooooo..OO.OO..ooooooooooo.",
"                                oo.                             ooooo.                          ooooooo.                        ooooooooo.                      .oooooooooo.                    OO.oooooooooo.                  OOOO.oooooooooo.                O.OOOO.oooooooooo.              OOO.OOOO.oooooooooo.            .OOOO.OOOO.oooooooooo.          oo.OOOO.OOOO.oooooooooo.        oooo.OOOO.OOOO.oooooooooo.      oooooo.OOOO.OOOO.oooooooooo.    oooooooo.OOOO.OOOO.oooooooooo.  .Xoooooooo.OOOO.OOOO.oooooooooo.",
"                                oo.                             ooooo.                          ooooooo.                        ooooooooo.                      O.ooooooooo.                    OOO.ooooooooo.                  OOOOO.ooooooooo.                O.OOOOO.ooooooooo.              OOO.OOOOO.ooooooooo.            OOOOO.OOOOO.ooooooooo.          o.OOOOO.OOOOO.ooooooooo.        ooo.OOOOO.OOOOO.ooooooooo.      ooooo.OOOOO.OOOOO.ooooooooo.    ooooooo.OOOOO.OOOOO.ooooooooo.  .Xooooooo.OOOOO.OOOOO.ooooooooo.",
"                                oo.                             ooooo.                          ooooooo.                        ooooooooo.                      O.ooooooooo.                    OOO.ooooooooo.                  +OOOO.ooooooooo.                +.+OOOO.ooooooooo.              OO+.+OOOO.ooooooooo.            OOOO+.+OOOO.ooooooooo.          o.OOOO+.+OOOO.ooooooooo.        ooo.OOOO+.+OOOO.ooooooooo.      ooooo.OOOO+.+OOOO.ooooooooo.    ooooooo.OOOO+.+OOOO.ooooooooo.  .Xooooooo.OOOO+.+OOOO.ooooooooo.",
"                                oo.                             ooooo.                          ooooooo.                        .oooooooo.                      OO.oooooooo.                    OOOO.oooooooo.                  ++OOOO.oooooooo.                +.++OOOO.oooooooo.              O++.++OOOO.oooooooo.            OOO++.++OOOO.oooooooo.          .OOOO++.++OOOO.oooooooo.        oo.OOOO++.++OOOO.oooooooo.      oooo.OOOO++.++OOOO.oooooooo.    oooooo.OOOO++.++OOOO.oooooooo.  .Xoooooo.OOOO++.++OOOO.oooooooo.",
"                                oo.                             ooooo.                          ooooooo.                        .oooooooo.                      OO.oooooooo.                    +OOO.oooooooo.                  +++OOO.oooooooo.                +.+++OOO.oooooooo.              +++.+++OOO.oooooooo.            OO+++.+++OOO.oooooooo.          .OOO+++.+++OOO.oooooooo.        oo.OOO+++.+++OOO.oooooooo.      oooo.OOO+++.+++OOO.oooooooo.    oooooo.OOO+++.+++OOO.oooooooo.  .Xoooooo.OOO+++.+++OOO.oooooooo.",
"                                oo.                             ooooo.                          ooooooo.                        .oooooooo.                      ...oooooooo.                    .....oooooooo.                  .......oooooooo.                .........oooooooo.              ...........oooooooo.            .............oooooooo.          ...............oooooooo.        oo...............oooooooo.      oooo...............oooooooo.    oooooo...............oooooooo.  .Xoooooo...............oooooooo.",
"                                oo.                             ooooo.                          ooooooo.                        .oooooooo.                      OO.oooooooo.                    +OOO.oooooooo.                  +++OOO.oooooooo.                +.+++OOO.oooooooo.              +++.+++OOO.oooooooo.            OO+++.+++OOO.oooooooo.          .OOO+++.+++OOO.oooooooo.        oo.OOO+++.+++OOO.oooooooo.      oooo.OOO+++.+++OOO.oooooooo.    oooooo.OOO+++.+++OOO.oooooooo.  .Xoooooo.OOO+++.+++OOO.oooooooo.",
"                                oo.                             ooooo.                          ooooooo.                        .oooooooo.                      OO.oooooooo.                    OOOO.oooooooo.                  ++OOOO.oooooooo.                +.++OOOO.oooooooo.              O++.++OOOO.oooooooo.            OOO++.++OOOO.oooooooo.          .OOOO++.++OOOO.oooooooo.        oo.OOOO++.++OOOO.oooooooo.      oooo.OOOO++.++OOOO.oooooooo.    oooooo.OOOO++.++OOOO.oooooooo.  .Xoooooo.OOOO++.++OOOO.oooooooo.",
"                                oo.                             ooooo.                          ooooooo.                        ooooooooo.                      O.ooooooooo.                    OOO.ooooooooo.                  +OOOO.ooooooooo.                +.+OOOO.ooooooooo.              OO+.+OOOO.ooooooooo.            OOOO+.+OOOO.ooooooooo.          o.OOOO+.+OOOO.ooooooooo.        ooo.OOOO+.+OOOO.ooooooooo.      ooooo.OOOO+.+OOOO.ooooooooo.    ooooooo.OOOO+.+OOOO.ooooooooo.  .Xooooooo.OOOO+.+OOOO.ooooooooo.",
"                                oo.                             ooooo.                          ooooooo.                        ooooooooo.                      O.ooooooooo.                    OOO.ooooooooo.                  OOOOO.ooooooooo.                O.OOOOO.ooooooooo.              OOO.OOOOO.ooooooooo.            OOOOO.OOOOO.ooooooooo.          o.OOOOO.OOOOO.ooooooooo.        ooo.OOOOO.OOOOO.ooooooooo.      ooooo.OOOOO.OOOOO.ooooooooo.    ooooooo.OOOOO.OOOOO.ooooooooo.  .Xooooooo.OOOOO.OOOOO.ooooooooo.",
"                                oo.                             ooooo.                          ooooooo.                        ooooooooo.                      .oooooooooo.                    OO.oooooooooo.                  OOOO.oooooooooo.                O.OOOO.oooooooooo.              OOO.OOOO.oooooooooo.            .OOOO.OOOO.oooooooooo.          oo.OOOO.OOOO.oooooooooo.        oooo.OOOO.OOOO.oooooooooo.      oooooo.OOOO.OOOO.oooooooooo.    oooooooo.OOOO.OOOO.oooooooooo.  .Xoooooooo.OOOO.OOOO.oooooooooo.",
"                                oo.                             ooooo.                          ooooooo.                        ooooooooo.                      ooooooooooo.                    ..ooooooooooo.                  OO..ooooooooooo.                O.OO..ooooooooooo.              .OO.OO..ooooooooooo.            o..OO.OO..ooooooooooo.          ooo..OO.OO..ooooooooooo.        ooooo..OO.OO..ooooooooooo.      ooooooo..OO.OO..ooooooooooo.    ooooooooo..OO.OO..ooooooooooo.  .Xooooooooo..OO.OO..ooooooooooo.",
"                                @o.                             o..@o.                          ooo..@o.                        ooooo..@o.                      ooooooo..@o.                    ooooooooo..@o.                  ..ooooooooo..@o.                ....ooooooooo..@o.              o.....ooooooooo..@o.            ooo.....ooooooooo..@o.          ooooo.....ooooooooo..@o.        ooooooo.....ooooooooo..@o.      ooooooooo.....ooooooooo..@o.    ooooooooooo.....ooooooooo..@o.  .Xooooooooooo.....ooooooooo..@o.",
"                                oo.                             o.ooo.                          ooo.ooo.                        ooooo.ooo.                      ooooooo.ooo.                    ooooooooo.ooo.                  ooooooooooo.ooo.                ooooooooooooo.ooo.              ooooooooooooooo.ooo.            ooooooooooooooooo.ooo.          ooooooooooooooooooo.ooo.        ooooooooooooooooooooo.ooo.      ooooooooooooooooooooooo.ooo.    ooooooooooooooooooooooooo.ooo.  .Xooooooooooooooooooooooooo.ooo.",
"                                oo.                             ooooo.                          ooooooo.                        ooooooooo.                      ooooooooooo.                    ooooooooooooo.                  ooooooooooooooo.                ooooooooooooooooo.              ooooooooooooooooooo.            ooooooooooooooooooooo.          ooooooooooooooooooooooo.        ooooooooooooooooooooooooo.      ooooooooooooooooooooooooooo.    ooooooooooooooooooooooooooooo.  .Xooooooooooooooooooooooooooooo.",
"                                oo.                             ooooo.                          ooooooo.                        ooooooooo.                      ooooooooooo.                    ooooooooooooo.                  ooooooooooooooo.                ooooooooooooooooo.              ooooooooooooooooooo.            ooooooooooooooooooooo.          ooooooooooooooooooooooo.        ooooooooooooooooooooooooo.      ooooooooooooooooooooooooooo.    ooooooooooooooooooooooooooooo.  .Xooooooooooooooooooooooooooooo.",
"                                oo.                             ooooo.                          ooooooo.                        ooooooooo.                      ooooooooooo.                    ooooooooooooo.                  ooooooooooooooo.                ooooooooooooooooo.              ooooooooooooooooooo.            ooooooooooooooooooooo.          ooooooooooooooooooooooo.        ooooooooooooooooooooooooo.      ooooooooooooooooooooooooooo.    ooooooooooooooooooooooooooooo.  .Xooooooooooooooooooooooooooooo.",
"                                oo.                             ooooo.                          ooooooo.                        ooooooooo.                      ooooooooooo.                    ooooooooooooo.                  ooooooooooooooo.                ooooooooooooooooo.              ooooooooooooooooooo.            ooooooooooooooooooooo.          ooooooooooooooooooooooo.        ooooooooooooooooooooooooo.      ooooooooooooooooooooooooooo.    ooooooooooooooooooooooooooooo.  .Xooooooooooooooooooooooooooooo.",
"                                oo.                             ooooo.                          ooooooo.                        ooooooooo.                      ooooooooooo.                    ooooooooooooo.                  ooooooooooooooo.                ooooooooooooooooo.              ooooooooooooooooooo.            ooooooooooooooooooooo.          ooooooooooooooooooooooo.        ooooooooooooooooooooooooo.      ooooooooooooooooooooooooooo.    ooooooooooooooooooooooooooooo.  .Xooooooooooooooooooooooooooooo.",
"                                oo.                             ooooo.                          ooooooo.                        ooooooooo.                      ooooooooooo.                    ooooooooooooo.                  ooooooooooooooo.                ooooooooooooooooo.              ooooooooooooooooooo.            ooooooooooooooooooooo.          ooooooooooooooooooooooo.        ooooooooooooooooooooooooo.      ooooooooooooooooooooooooooo.    ooooooooooooooooooooooooooooo.  .Xooooooooooooooooooooooooooooo.",
"                                oo.                             ooooo.                          ooooooo.                        ooooooooo.                      ooooooooooo.                    ooooooooooooo.                  ooooooooooooooo.                ooooooooooooooooo.              ooooooooooooooooooo.            ooooooooooooooooooooo.          ooooooooooooooooooooooo.        ooooooooooooooooooooooooo.      ooooooooooooooooooooooooooo.    ooooooooooooooooooooooooooooo.  .Xooooooooooooooooooooooooooooo.",
"                                oo.                             ooooo.                          ooooooo.                        ooooooooo.                      ooooooooooo.                    ooooooooooooo.                  ooooooooooooooo.                ooooooooooooooooo.              ooooooooooooooooooo.            ooooooooooooooooooooo.          ooooooooooooooooooooooo.        ooooooooooooooooooooooooo.      ooooooooooooooooooooooooooo.    ooooooooooooooooooooooooooooo.  .Xooooooooooooooooooooooooooooo.",
"                                oo.                             ooooo.                          ooooooo.                        ooooooooo.                      ooooooooooo.                    ooooooooooooo.                  ooooooooooooooo.                ooooooooooooooooo.              ooooooooooooooooooo.            ooooooooooooooooooooo.          ooooooooooooooooooooooo.        ooooooooooooooooooooooooo.      ooooooooooooooooooooooooooo.    Xoooooooooooooooooooooooooooo.  .XXoooooooooooooooooooooooooooo.",
"                                oo.                             ooooo.                          ooooooo.                        ooooooooo.                      ooooooooooo.                    ooooooooooooo.                  ooooooooooooooo.                ooooooooooooooooo.              ooooooooooooooooooo.            ooooooooooooooooooooo.          ooooooooooooooooooooooo.        ooooooooooooooooooooooooo.      ooooooooooooooooooooooooooo.    XXooooooooooooooooooooooooooo.  .XXXooooooooooooooooooooooooooo.",
"                                oX.                             ooooX.                          ooooooX.                        ooooooooX.                      ooooooooooX.                    ooooooooooooX.                  ooooooooooooooX.                ooooooooooooooooX.              ooooooooooooooooooX.            ooooooooooooooooooooX.          ooooooooooooooooooooooX.        ooooooooooooooooooooooooX.      XoooooooooooooooooooooooooX.    XXXoooooooooooooooooooooooooX.  .XXXXoooooooooooooooooooooooooX.",
"                                XX.                             oooXX.                          oooooXX.                        oooooooXX.                      oooooooooXX.                    oooooooooooXX.                  oooooooooooooXX.                oooooooooooooooXX.              oooooooooooooooooXX.            oooooooooooooooooooXX.          oooooooooooooooooooooXX.        oooooooooooooooooooooooXX.      XXoooooooooooooooooooooooXX.    XXXXoooooooooooooooooooooooXX.  .XXXXXoooooooooooooooooooooooXX.",
"                                ...                             ......                          ........                        ..........                      ............                    ..............                  ................                ..................              ....................            ......................          ........................        ..........................      ............................    ..............................  ................................"
};
